<svg width="62" height="68" viewBox="0 0 62 68" fill="none" xmlns="http://www.w3.org/2000/svg">
<path d="M62 31C62 43.9254 54.0661 54.9909 42.822 59.6461V52.7736C50.8925 48.5702 56.399 40.1214 56.399 30.401C56.399 16.4773 45.1024 5.18068 31.1786 5.18068C17.2444 5.18068 5.9583 16.4773 5.9583 30.401C5.9583 40.5207 11.9271 49.2532 20.5336 53.2675V60.161C8.57491 55.8631 0 44.4403 0 31C0 13.8712 13.8817 0 31 0C48.1183 0 62 13.8712 62 31Z" fill="#E86A33"/>
<path d="M31.5885 45.8907C29.182 45.8907 27.238 43.9467 27.238 41.5402C27.238 39.1338 29.182 37.1897 31.5885 37.1897C33.9949 37.1897 35.939 39.1338 35.939 41.5402C35.939 43.9467 33.9949 45.8907 31.5885 45.8907Z" fill="#FF9060"/>
<path d="M31.5885 57.7024C29.8756 57.7024 28.478 56.3047 28.478 54.5919C28.478 52.879 29.8756 51.4814 31.5885 51.4814C33.3013 51.4814 34.699 52.879 34.699 54.5919C34.699 56.3153 33.3119 57.7024 31.5885 57.7024Z" fill="#F89A71"/>
<path d="M31.5885 67.801C32.8711 67.801 33.9109 66.7612 33.9109 65.4786C33.9109 64.196 32.8711 63.1562 31.5885 63.1562C30.3059 63.1562 29.2661 64.196 29.2661 65.4786C29.2661 66.7612 30.3059 67.801 31.5885 67.801Z" fill="#FFBFA4"/>
<path d="M21.1221 31.7675V27.1227C21.1221 21.5637 25.6302 17.0451 31.1997 17.0451C36.7587 17.0451 41.2773 21.5532 41.2773 27.1227V31.7675H21.1221Z" fill="#E86A33"/>
<path d="M56.399 30.4012C56.399 40.1216 50.8926 48.5704 42.822 52.7738V47.7718C48.0868 44.0518 51.5336 37.9253 51.5336 31.0002C51.5336 19.6721 42.3281 10.4562 31 10.4562C19.6719 10.4562 10.4665 19.6721 10.4665 31.0002C10.4665 38.5033 14.5122 45.0606 20.5336 48.644V53.2677C11.9271 49.2535 5.95831 40.5209 5.95831 30.4012C5.95831 16.4775 17.2444 5.18091 31.1787 5.18091C45.1024 5.18091 56.399 16.4775 56.399 30.4012Z" fill="#FFB494"/>
</svg>
